<svg xmlns="http://www.w3.org/2000/svg" viewBox="0 0 1012.61 961.1"><defs><style>.cls-1{fill:#e6d7fa;}.cls-15,.cls-17,.cls-18,.cls-2{fill:#fff;}.cls-2{stroke:#000;stroke-width:0.25px;}.cls-10,.cls-13,.cls-14,.cls-16,.cls-2{stroke-miterlimit:10;}.cls-3{fill:#210e3a;}.cls-4{fill:#f5f5f5;}.cls-5{fill:#ff4601;}.cls-6{fill:#ffcb3d;}.cls-7{fill:#3abf7c;}.cls-8{fill:#e1e5f0;}.cls-9{fill:#ff8456;}.cls-10,.cls-14,.cls-16{fill:none;}.cls-10,.cls-16{stroke:#210e3a;}.cls-11{fill:#ff652b;}.cls-12,.cls-13{fill:#8337e7;}.cls-13{stroke:#dbdbdb;stroke-width:0.5px;}.cls-14{stroke:#b97964;}.cls-15{font-size:8.33px;font-family:GeneralSans-Bold, General Sans;font-weight:700;letter-spacing:0.05em;}.cls-16{stroke-dasharray:12.1 12.1;}.cls-17{font-size:9.92px;font-family:GeneralSans-Medium, General Sans;font-weight:500;}.cls-18{fill-rule:evenodd;}</style></defs><g id="Layer_2" data-name="Layer 2"><g id="Layer_1-2" data-name="Layer 1"><rect class="cls-1" x="336.5" y="1.02" width="631.18" height="696.65"/><rect class="cls-2" x="376.36" y="55.26" width="551.48" height="588.18"/><path class="cls-3" d="M556.44,537.79c0,.39-29.73.73-66.38.73s-66.38-.34-66.38-.73,29.7-.74,66.38-.74S556.44,537.45,556.44,537.79Z"/><path class="cls-3" d="M556.44,556.3c0,.42-29.73.73-66.38.73s-66.38-.31-66.38-.73,29.7-.74,66.38-.74S556.44,555.9,556.44,556.3Z"/><path class="cls-3" d="M556.44,574.75c0,.4-29.73.74-66.38.74s-66.38-.34-66.38-.74,29.7-.73,66.38-.73S556.44,574.33,556.44,574.75Z"/><path class="cls-3" d="M556.44,593.18c0,.42-29.73.73-66.38.73s-66.38-.31-66.38-.73,29.7-.74,66.38-.74S556.44,592.78,556.44,593.18Z"/><path class="cls-3" d="M494.33,504.13H423.68v6h70.65Z"/><rect class="cls-4" x="376.36" y="39.05" width="551.48" height="61.35"/><ellipse id="Burron-Copy" class="cls-5" cx="423.23" cy="75.09" rx="8.57" ry="8.39"/><ellipse id="Burron-Copy-2" class="cls-6" cx="451.21" cy="75.09" rx="8.57" ry="8.39"/><ellipse id="Burron-Copy-3" class="cls-7" cx="480.09" cy="75.09" rx="8.57" ry="8.39"/><path class="cls-8" d="M105.09,919.36l145.39,34.51c2.27.54,3.6,2.56,3,4.53a4.38,4.38,0,0,1-5.25,2.57l-145.38-34.5c-2.27-.54-3.61-2.57-3-4.53A4.38,4.38,0,0,1,105.09,919.36Z"/><path class="cls-3" d="M252.2,954.65a4.46,4.46,0,0,0-1.66-.77l-145.39-34.5a4.08,4.08,0,0,0-.92-.13l25.22-45.94,57.78,12.06,13.17,14.25A78.75,78.75,0,0,0,210,911.23c8.76,8.62,14.36,9.86,28.5,20.43a113.26,113.26,0,0,1,10.89,9c1.51,2.06,4.07,6.06,4,10.13a15.77,15.77,0,0,1-.3,1.88A6.81,6.81,0,0,1,252.2,954.65Z"/><path class="cls-9" d="M194.08,856.21l-6.85,29.16-57.78-12.06s1.09-11,2.08-23.1c14.75,2.27,24.52,2.91,24.52,2.91,7.6.85,15.22,1.62,23.4,2.18,0,0,1.94.11,4.05.26Z"/><path class="cls-9" d="M95.68,47.43s32.08-28.79,77.7-7V101s.07,32.44-23.6,32.44v29H96.26Z"/><path class="cls-9" d="M99.71,66.18C97.49,64.63,83.12,73,85.44,82c1.29,5,7.44,9.11,14.74,8.67-.5-10.51-.52-17.76-.1-22.56C100.14,67.49,100.23,66.55,99.71,66.18Z"/><path class="cls-3" d="M116.42,26.62s.33-10.64,13-15.54c0,0,5-3.08,18.46-1.86S169.6,0,169.6,0s10.3-.24,6.79,10.51-11.87,9-11.87,9,15.26-2.13,17.23,5.42-6.54,7.94-6.54,7.94,11.47,1.62,5.32,12.6-31.87,5-31.87,5l-29.91-10s-11.58-2.66-11.32,11,.62,32.53.62,32.53l-9.42.19L96,69.13A44.61,44.61,0,0,1,90.31,52.6c-1.08-9.13.24-18,9.86-22.7S116.42,26.62,116.42,26.62Z"/><path class="cls-10" d="M93.16,73.14a5.2,5.2,0,0,0-2.68,7.16c2.18,5.17,5.78,6.7,5.78,6.7"/><ellipse cx="134.56" cy="75.99" rx="1.61" ry="1.64"/><ellipse cx="162.95" cy="75.99" rx="1.61" ry="1.64"/><path class="cls-8" d="M37.18,950c-2.46,0-4.36-1.41-4.27-3.11v-1.14c0-1.7,2-3.11,4.27-3.11h97.2c2.37,0,4.27,1.41,4.27,3.11v1.14c0,1.7-2,3.11-4.27,3.11Z"/><path d="M131.36,74.28S136,70.1,141.5,70.9a8.81,8.81,0,0,0-7-2.21A4.06,4.06,0,0,0,131,71.62,3.21,3.21,0,0,0,131.36,74.28Z"/><polygon class="cls-3" points="134.42 942.62 38.23 942.62 67.15 894.52 119.68 900.01 134.42 942.62"/><path d="M171,74.28s-4.63-4.18-10.14-3.38a8.81,8.81,0,0,1,7-2.21,4.06,4.06,0,0,1,3.55,2.93A3.21,3.21,0,0,1,171,74.28Z"/><path class="cls-9" d="M124.52,874.73,119.68,900l-52.44-5.49q.35-13.39.53-23.75c5.08,1,10.37,2,16.12,3,3.36.28,6.72.56,10,.67,8.13.46,15.86.59,23.49.73Z"/><path d="M150.27,72.77c2.26,6.78,4.15,13.66,5.92,20.57,1.53,4.52-2.39,6.38-6.5,6-1.13-.06-2.27-.11-3.41-.2,1.14-.09,2.28-.13,3.41-.19,3.39,0,7.11-1.22,5.57-5.31-1.87-6.89-3.62-13.81-5-20.82Z"/><path class="cls-11" d="M123.09,124.21s10.31,7.9,26.69,9.27v5.27S126.79,139,123.09,124.21Z"/><path class="cls-12" d="M40.51,390.39c-.43,10.68,4.11,16.78,4.11,16.78l170,19.54-.54-7.8-1.45-20.82-2.77-39.86L206.52,311l-3.6-42.9C219.17,290.8,243,304.37,243,304.37s23.77,11,38.53,7.56,42.74-25.27,42.74-25.27c19.15-14.11,54.39-58.8,54.39-58.8l-33.45-33.45-13.58,12.85s-40.22,35.84-48.78,43.62-16.94,0-16.94,0A329,329,0,0,1,216,191.06c-23.37-36-63.35-36.19-63.35-36.19v-5.2l-58.59-4v8.65s-41.16-4.78-57.32,11.58a58.14,58.14,0,0,0-20.37,35.92c-3.77,23.78-10,66.65-10,66.65L1.44,302.56S-5.43,330,10.86,349.2,42.68,376,42.68,376Z"/><path class="cls-9" d="M121.27,362.72l6.23,1.82s11.12-1.59,19.17-8.79c0,0,4.28-3.56,4.85-5.08s7-3.21,5.77,3.14-13.42,14.61-13.42,14.61l11.92,18.11,10.32,13.68s5.53,6.36,11.25,7.56,15.71,8.49,15.71,8.49l1.14,1.42s-1.11,1.41-4.15.82S160,411.16,160,411.16l-25.75-6.88-11.74-3.14-5.17-1.2Z"/><path class="cls-13" d="M66.75,171.37s15.27,8.47,10,32.71S63.2,275.84,63.2,275.84s-9.62,30.43-.85,44.56,68.79,41,68.79,41l-9.15,42s-41.52-6.77-59.3-17.63-20.11-9.11-20.11-9.11"/><path class="cls-5" d="M44.62,407.17l170,16.87,44.3,175.24s12.22,58.1-4.3,91.67L213.75,816.32l-19.32,57-77.08-20.2L184.27,670l8.44-23.79L140.84,472.67l-1.24,167.6,1.28,104.08L143,875.57H55Z"/><path class="cls-9" d="M350.09,199s7.8-5.58,2.52-33.65c0,0,.8-7.37,5.81-1.66s4.89,16.51,4.89,16.51-.57,10.21,9-1.27,15.94-18.31,15.94-18.31,4.71-4.82,6.26-4.72,4.29,1.49.33,7.26c0,0-6.5,8.1-8.73,12.09s-4,6.26-3.15,8.65c0,0,4.27-.31,6.71,1.59,0,0,.2,2.4.13,5.57,0,0,3.53-.13,4.41,1.09s.18,5.87.18,5.87,4.38-.7,4.81,1.13,1.07,2.28-1.41,5.23-9.95,8.71-9.95,8.71l-12.78,10.18Z"/><path class="cls-14" d="M382.06,185.71s-5.8,8.19-8.33,10.1-4.1,3.68-2.33,6,6.34-1.22,6.34-1.22l10.05-8.54-9.33,9.25s-3.91,2.44-1,5.28S391.91,199,391.91,199l-5.73,6.58s-2,2.31-.24,4.6,6.82-2.35,6.82-2.35"/><path class="cls-10" d="M159.91,106.46c-.47,5.32-3.33,7.74-7.71,9.54a12.2,12.2,0,0,1-7.34.49"/><path class="cls-1" d="M775.35,534.63a20.76,20.76,0,0,0,11.74,18.7l-9.28,16.77a39.9,39.9,0,0,1,18.28-75.37v19.16A20.75,20.75,0,0,0,775.35,534.63Z"/><path class="cls-12" d="M829.35,512.58,813.25,523h0a20.73,20.73,0,0,0-17.16-9.08V494.73A39.84,39.84,0,0,1,829.35,512.58Z"/><path class="cls-5" d="M830.42,555a39.89,39.89,0,0,1-52.61,15.12l9.28-16.77a20.76,20.76,0,0,0,26.16-7Z"/><path class="cls-1" d="M805.26,534.63a9.16,9.16,0,0,1-9.17,9.17,9,9,0,0,1-3.37-.65,9.16,9.16,0,1,1,12.54-8.52Z"/><path class="cls-3" d="M836,557.8,830.42,555l-17.17-8.68h0a20.79,20.79,0,0,0,0-23.33h0l16.1-10.38L836,508.3S855.36,538.44,836,557.8Z"/><path class="cls-3" d="M778.53,469.18c0,.12-8,.2-17.78.2s-17.79-.08-17.79-.2,8-.19,17.79-.19S778.53,469.08,778.53,469.18Z"/><path class="cls-3" d="M771.43,610c0,.12-4.78.2-10.68.2s-10.69-.08-10.69-.2,4.78-.19,10.69-.19S771.43,609.87,771.43,610Z"/><path class="cls-3" d="M812.45,610c0,.12-4.78.2-10.69.2s-10.68-.08-10.68-.2,4.78-.19,10.68-.19S812.45,609.87,812.45,610Z"/><path class="cls-3" d="M812.45,623.85c0,.11-4.78.2-10.69.2s-10.68-.09-10.68-.2,4.78-.2,10.68-.2S812.45,623.74,812.45,623.85Z"/><path class="cls-3" d="M853.47,610c0,.12-4.79.2-10.69.2s-10.69-.08-10.69-.2,4.79-.19,10.69-.19S853.47,609.87,853.47,610Z"/><path class="cls-3" d="M853.47,469.38c0,.11-4.79.2-10.69.2s-10.69-.09-10.69-.2,4.79-.2,10.69-.2S853.47,469.27,853.47,469.38Z"/><path class="cls-3" d="M501,130.4c0,.21-14.42.36-32.19.36s-32.19-.15-32.19-.36S451,130,468.77,130,501,130.21,501,130.4Z"/><path class="cls-3" d="M843,130.4c0,.21-14.42.36-32.19.36s-32.19-.15-32.19-.36S793,130,810.8,130,843,130.21,843,130.4Z"/><path class="cls-3" d="M482.5,373.61c0,.21-8.67.36-19.35.36s-19.35-.15-19.35-.36,8.66-.36,19.35-.36S482.5,373.42,482.5,373.61Z"/><path class="cls-3" d="M546.08,373.61c0,.21-8.66.36-19.34.36s-19.35-.15-19.35-.36,8.66-.36,19.35-.36S546.08,373.42,546.08,373.61Z"/><path class="cls-3" d="M609.67,373.61c0,.21-8.67.36-19.35.36s-19.34-.15-19.34-.36,8.65-.36,19.34-.36S609.67,373.42,609.67,373.61Z"/><path class="cls-3" d="M673.25,373.61c0,.21-8.66.36-19.34.36s-19.35-.15-19.35-.36,8.66-.36,19.35-.36S673.25,373.42,673.25,373.61Z"/><path class="cls-3" d="M736.84,373.61c0,.21-8.66.36-19.34.36s-19.35-.15-19.35-.36,8.65-.36,19.35-.36S736.84,373.42,736.84,373.61Z"/><path class="cls-3" d="M800.43,373.61c0,.21-8.67.36-19.35.36s-19.34-.15-19.34-.36,8.65-.36,19.34-.36S800.43,373.42,800.43,373.61Z"/><path class="cls-3" d="M864,373.61c0,.21-8.66.36-19.34.36s-19.35-.15-19.35-.36,8.66-.36,19.35-.36S864,373.42,864,373.61Z"/><rect class="cls-5" x="442.03" y="317.89" width="16.62" height="32.52"/><rect class="cls-12" x="464.43" y="299.1" width="18.06" height="51.3"/><rect class="cls-5" x="508.9" y="299.1" width="16.62" height="51.3"/><rect class="cls-12" x="531.3" y="284.17" width="18.06" height="66.24"/><rect class="cls-5" x="571.4" y="284.17" width="16.62" height="66.24"/><rect class="cls-12" x="593.8" y="262" width="18.06" height="88.41"/><rect class="cls-5" x="634.3" y="262" width="16.62" height="88.41"/><rect class="cls-12" x="656.7" y="236.3" width="18.06" height="114.11"/><rect class="cls-5" x="699.69" y="236.3" width="16.62" height="114.11"/><rect class="cls-12" x="722.09" y="214.98" width="18.06" height="135.43"/><rect class="cls-5" x="762.58" y="214.98" width="16.62" height="135.43"/><rect class="cls-12" x="784.98" y="195.83" width="18.06" height="154.57"/><rect class="cls-5" x="827.14" y="195.83" width="16.62" height="154.57"/><rect class="cls-12" x="849.54" y="170.18" width="18.06" height="180.23"/><rect class="cls-5" x="543.19" y="396.89" width="91.37" height="25.53"/><rect class="cls-12" x="645.47" y="396.89" width="91.37" height="25.53"/><circle class="cls-12" cx="794.02" cy="172.87" r="16.09"/><text class="cls-15" transform="translate(784.11 175.57)">80%</text><line class="cls-10" x1="402.83" y1="722.4" x2="408.83" y2="722.4"/><line class="cls-16" x1="420.93" y1="722.4" x2="899.02" y2="722.4"/><line class="cls-10" x1="905.07" y1="722.4" x2="911.07" y2="722.4"/><circle class="cls-3" cx="350.09" cy="722.4" r="52.74"/><text class="cls-17" transform="translate(330.9 693.77) rotate(-27.2)">O</text><text class="cls-17" transform="translate(338.16 690.2) rotate(-15.87)">F</text><text class="cls-17" transform="translate(343.58 688.67) rotate(-6.46)">F</text><text class="cls-17" transform="matrix(1, 0.05, -0.05, 1, 349.15, 688.06)">L</text><text class="cls-17" transform="translate(354.78 688.45) rotate(10.14)">I</text><text class="cls-17" transform="translate(357.64 688.8) rotate(18.86)">N</text><text class="cls-17" transform="translate(364.78 691.34) rotate(30.08)">E</text><text class="cls-17" transform="matrix(0.8, 0.6, -0.6, 0.8, 369.95, 694.49)"> </text><path class="cls-18" d="M358.21,712.07A6.28,6.28,0,0,0,353,714.9a6.72,6.72,0,0,0-5.59,4.29,4.91,4.91,0,0,0-.77-.09h0a5.33,5.33,0,0,0-5.19,4.44,4.54,4.54,0,0,0-1.1-.2h0a4.7,4.7,0,0,0,0,9.39h.24c-.08,0,0,0,.11,0h18.88a3.15,3.15,0,0,0,1.12-.22,5.39,5.39,0,0,0,3.87-5.18,5.39,5.39,0,0,0-2.09-4.27,6.25,6.25,0,0,0,1.55-2.12,6.39,6.39,0,0,0,.54-2.56,6.32,6.32,0,0,0-6.31-6.31Zm0,.9a5.37,5.37,0,0,1,3.47,1.26l-7.62,7.63a5.41,5.41,0,0,1,4.15-8.89Zm4.11,1.9a5.41,5.41,0,0,1-7.63,7.63l7.63-7.63Zm-9.91,1a6.3,6.3,0,0,0,5.8,8.81,6.25,6.25,0,0,0,3.49-1.06,4.51,4.51,0,0,1,1.92,3.69,4.46,4.46,0,0,1-3.24,4.32h0a2.31,2.31,0,0,1-.82.17H340.65c.08,0,0,0-.11,0h0l-.21,0a3.8,3.8,0,0,1,0-7.59,3.6,3.6,0,0,1,1.26.23.39.39,0,0,0,.21,0,.44.44,0,0,0,.19-.07.4.4,0,0,0,.15-.14.66.66,0,0,0,.06-.2,4.46,4.46,0,0,1,4.42-4.09,4.15,4.15,0,0,1,.93.11.5.5,0,0,0,.32-.05.51.51,0,0,0,.21-.25,5.81,5.81,0,0,1,4.36-3.92Z"/><circle class="cls-3" cx="959.86" cy="722.4" r="52.74"/><text class="cls-17" transform="translate(940.67 693.77) rotate(-27.2)">O</text><text class="cls-17" transform="translate(947.89 690.12) rotate(-14.24)">N</text><text class="cls-17" transform="matrix(1, -0.06, 0.06, 1, 955.22, 688.37)">L</text><text class="cls-17" transform="translate(960.88 688.15) rotate(3.92)">I</text><text class="cls-17" transform="translate(963.74 688.18) rotate(12.7)">N</text><text class="cls-17" transform="translate(971.11 689.94) rotate(23.89)">E</text><text class="cls-17" transform="translate(976.59 692.5) rotate(30.89)"> </text><path class="cls-18" d="M968,712.07a6.28,6.28,0,0,0-5.26,2.83,6.72,6.72,0,0,0-5.58,4.29,5,5,0,0,0-.77-.09h0a5.31,5.31,0,0,0-5.19,4.44,4.63,4.63,0,0,0-1.1-.2h0a4.7,4.7,0,0,0,0,9.39h.24c-.05,0,0,0,.11,0H969.3a3.33,3.33,0,0,0,1.12-.21,5.4,5.4,0,0,0,3.88-5.19,5.46,5.46,0,0,0-.55-2.38,5.54,5.54,0,0,0-1.54-1.89,6.36,6.36,0,0,0,1.54-2.12,6.23,6.23,0,0,0,.55-2.56A6.32,6.32,0,0,0,968,712.07Zm0,.9a5.42,5.42,0,1,1-5.41,5.41A5.41,5.41,0,0,1,968,713Zm-5.8,2.92a6.31,6.31,0,0,0,9.29,7.75,4.49,4.49,0,0,1,1.93,3.69,4.51,4.51,0,0,1-3.24,4.33h0a2.44,2.44,0,0,1-.83.16H950.43c.07,0,0,0-.12,0h0l-.2,0a3.79,3.79,0,0,1,0-7.58,3.66,3.66,0,0,1,1.27.23.46.46,0,0,0,.2,0,.48.48,0,0,0,.2-.07.32.32,0,0,0,.14-.14.48.48,0,0,0,.07-.2,4.45,4.45,0,0,1,4.42-4.08,4.2,4.2,0,0,1,.93.1.51.51,0,0,0,.32-.05.44.44,0,0,0,.2-.25,5.86,5.86,0,0,1,4.36-3.92Zm8.65.37a.48.48,0,0,0-.28.1L967,719.21l-1.2-1.54a.42.42,0,0,0-.3-.17.46.46,0,0,0-.34.09.48.48,0,0,0-.17.3.44.44,0,0,0,.1.33l1.48,1.91a.53.53,0,0,0,.14.11.3.3,0,0,0,.16,0,.37.37,0,0,0,.18,0,.48.48,0,0,0,.16-.08l3.92-3.14a.38.38,0,0,0,.15-.22.45.45,0,0,0,0-.28.47.47,0,0,0-.17-.22.43.43,0,0,0-.27-.08Z"/></g></g></svg>